<svg xmlns="http://www.w3.org/2000/svg" width="512" height="512" viewBox="0 0 512 512" version="1.1">
	<path d="M 92.828 16.248 C 93.019 22.213, 92.400 32.563, 91.350 41 C 88.909 60.595, 88.898 89.197, 91.328 101.335 C 93.516 112.268, 95.792 118.137, 101.108 126.554 C 105.325 133.230, 105.286 133.079, 107.648 152.037 C 108.111 155.755, 107.642 157.830, 105.048 163.537 C 100.236 174.123, 98 183.351, 98 192.625 C 98 200.795, 100.474 211.536, 103.217 215.278 C 104.091 216.468, 111.360 218.763, 126 222.467 C 150.667 228.709, 184.091 236.242, 184.648 235.685 C 184.855 235.478, 180.182 234.060, 174.263 232.535 C 160.511 228.991, 154.488 226.142, 148.714 220.449 C 140.164 212.021, 134.761 199.694, 133.097 184.824 C 132.585 180.246, 132.245 176.422, 132.341 176.325 C 132.438 176.229, 135.438 176.946, 139.008 177.919 L 145.500 179.687 147.595 186.094 C 152.370 200.691, 160.027 210.902, 169.797 215.700 C 174.836 218.174, 176.613 218.500, 185.061 218.500 C 194.478 218.500, 194.769 218.427, 204.476 213.641 C 212.698 209.586, 214.979 208.868, 218.243 209.306 C 222.953 209.938, 225.546 212.093, 227.040 216.621 C 228.392 220.718, 229.293 220.839, 231.736 217.250 C 237.844 208.278, 239.950 198.780, 240.663 177 C 241.230 159.655, 241.913 155, 243.888 155 C 244.337 155, 245.541 159.704, 246.562 165.454 C 248.258 174.996, 248.519 175.670, 249.564 173.186 C 250.193 171.689, 251.727 165.072, 252.972 158.482 C 256.421 140.228, 256.218 140.789, 257.117 147 C 257.555 150.025, 258.935 157.361, 260.183 163.301 L 262.454 174.103 263.648 167.301 C 264.305 163.561, 264.939 156.675, 265.057 152 C 265.176 147.325, 265.462 144.625, 265.694 146 C 265.926 147.375, 266.938 150.975, 267.943 154 C 269.246 157.924, 269.967 164.229, 270.458 176 C 271.232 194.553, 272.693 202.476, 277.008 211.517 C 281.319 220.549, 282.409 221.125, 284.832 215.647 C 288.379 207.628, 294.163 206.858, 305.297 212.924 C 322.520 222.306, 338.677 220.436, 350.758 207.663 C 356.321 201.780, 359.611 195.878, 362.899 185.880 L 365.076 179.261 370.705 178.130 C 379.497 176.365, 379.232 176.208, 378.506 182.750 C 376.962 196.683, 370.849 210.942, 362.939 219.062 C 357.269 224.883, 352.721 227.278, 338 232.189 C 326.256 236.107, 326.487 236.193, 343 234.047 C 398.237 226.869, 397.286 227.087, 404.189 219.968 C 415.614 208.186, 415.931 187.600, 405.024 165.634 C 399.772 155.055, 399.296 152.969, 401.077 148.315 C 401.670 146.767, 402.299 141.843, 402.476 137.373 C 402.817 128.763, 403.633 126.412, 408.044 121.332 C 411.693 117.130, 414.671 108.905, 416.609 97.680 C 418.220 88.348, 418.174 71.360, 416.403 22.622 L 415.789 5.743 409.645 6.271 C 396.498 7.400, 376.275 15.875, 360.063 27.048 C 355.353 30.294, 346.550 37.204, 340.500 42.403 C 319.786 60.207, 316.307 61.247, 294.500 56.154 C 265.141 49.297, 243.622 49.500, 213 56.925 C 208.325 58.059, 201.800 58.984, 198.500 58.981 C 190.774 58.975, 184.879 55.727, 170.753 43.697 C 155.644 30.830, 143.925 22.708, 131.500 16.492 C 120.040 10.760, 104.228 6.002, 96.622 5.998 L 92.500 5.996 92.828 16.248 M 109.097 33.384 C 105.284 37.978, 102.913 81.919, 105.826 94 C 106.556 97.025, 110.426 106.250, 114.428 114.500 C 118.429 122.750, 122.276 131.629, 122.976 134.231 C 124.780 140.933, 126.704 142.249, 127.499 137.323 C 128.879 128.768, 128.724 129, 133.019 129 L 137 129 137 123.421 L 137 117.841 140 118.500 C 141.650 118.862, 143 118.773, 143 118.302 C 143 116.282, 139.668 112.957, 136.705 112.020 L 133.500 111.007 136.973 111.523 C 138.972 111.820, 141.779 113.332, 143.590 115.087 C 146.173 117.590, 146.842 117.853, 147.339 116.559 C 148.200 114.315, 146.514 110.474, 143.849 108.607 C 142.597 107.730, 139.419 106.726, 136.786 106.377 C 134.154 106.028, 132 105.285, 132 104.726 C 132 103.722, 142.256 104.287, 148.250 105.621 C 150.296 106.076, 151 105.851, 151 104.740 C 151 102.947, 143.240 99.448, 135.830 97.900 C 128.126 96.291, 127.257 94.781, 134.513 95.614 C 142.094 96.484, 147.456 98.348, 151.705 101.588 C 153.543 102.990, 155.711 103.994, 156.523 103.819 C 157.757 103.553, 157.678 102.973, 156.048 100.304 C 153.415 95.995, 151.040 94.594, 139.634 90.621 C 134.278 88.756, 129.656 86.990, 129.362 86.695 C 128.476 85.810, 146.173 89.850, 150.811 91.592 C 153.182 92.483, 155.361 92.972, 155.654 92.680 C 156.988 91.345, 142.417 82.714, 134 79.853 C 132.127 79.216, 132.541 79.127, 135.653 79.498 C 137.937 79.770, 143.449 81.552, 147.903 83.458 C 157.093 87.392, 158.764 86.357, 151.944 80.955 C 147.916 77.765, 133.797 71.036, 131.083 71.012 C 130.304 71.005, 129.929 70.737, 130.250 70.417 C 131.078 69.589, 145.384 73.645, 150.073 76.037 C 152.233 77.139, 154 77.628, 154 77.124 C 154 74.297, 140.808 66.001, 131.500 62.974 C 129.300 62.259, 127.950 61.522, 128.500 61.338 C 129.050 61.154, 134.113 62.518, 139.750 64.369 C 145.387 66.221, 150 67.454, 150 67.110 C 150 66.095, 137.884 58.289, 133 56.156 C 122.632 51.630, 123.145 51.933, 127 52.613 C 128.925 52.952, 133.200 54.339, 136.500 55.695 C 139.800 57.050, 143.175 58.421, 144 58.740 C 146.515 59.713, 140.763 53.929, 136.500 51.198 C 134.300 49.789, 130.475 47.808, 128 46.796 C 123.830 45.090, 123.756 45.001, 127 45.579 C 128.925 45.922, 132.384 47.019, 134.686 48.017 C 137.216 49.113, 138.671 49.370, 138.363 48.666 C 137.441 46.556, 127.374 38.630, 121.381 35.296 C 115.090 31.796, 110.949 31.151, 109.097 33.384 M 390.810 33.842 C 382.935 37.857, 367.785 50, 370.651 50 C 371.200 50, 374.954 48.876, 378.994 47.502 C 383.033 46.128, 386.482 45.148, 386.658 45.324 C 386.834 45.501, 383.495 47.095, 379.239 48.868 C 371.098 52.260, 363.934 56.672, 363.260 58.710 C 363.013 59.457, 366.224 58.783, 371.648 56.950 C 383.717 52.870, 384.617 53.831, 372.960 58.348 C 364.876 61.480, 357.033 66.367, 358.207 67.541 C 358.393 67.727, 362.474 66.592, 367.275 65.018 C 380.751 60.603, 383.566 60.552, 372.732 64.921 C 361.605 69.407, 356.475 72.321, 355.576 74.663 C 354.619 77.157, 355.346 77.228, 360.620 75.158 C 366.874 72.703, 380.630 68.813, 379.421 69.841 C 378.915 70.272, 374.093 72.333, 368.706 74.421 C 362.498 76.827, 357.590 79.464, 355.302 81.622 C 353.317 83.494, 351.920 85.253, 352.198 85.531 C 352.476 85.809, 358.058 84.235, 364.602 82.033 C 378.901 77.222, 383.928 76.770, 372 81.369 C 360.572 85.774, 355.281 88.606, 353.998 91.003 C 352.664 93.497, 353.904 93.618, 358.171 91.412 C 361.732 89.570, 380.084 84.751, 380.802 85.469 C 381.068 85.735, 380.659 86.153, 379.893 86.397 C 379.127 86.641, 375.382 87.808, 371.571 88.991 C 360.023 92.576, 351.444 98.017, 352.137 101.316 C 352.461 102.855, 352.890 102.775, 356.114 100.577 C 360.314 97.713, 369.548 94.471, 376 93.595 C 379.616 93.104, 378.684 93.641, 371.259 96.329 C 362.609 99.460, 358 102.181, 358 104.155 C 358 105.506, 361.497 105.147, 369.243 103 C 373.212 101.900, 376.881 101, 377.397 101 C 379.370 101, 376.627 102.564, 371.271 104.492 C 365.856 106.441, 362.804 109.137, 364.308 110.641 C 364.714 111.047, 367.173 110.616, 369.773 109.684 C 372.373 108.753, 375.400 108.033, 376.500 108.086 C 377.600 108.139, 375.896 109, 372.713 110 C 366.737 111.876, 364 113.520, 364 115.232 C 364 116.281, 369.162 115.840, 372.500 114.505 C 374.146 113.847, 374.279 113.944, 373.250 115.053 C 371.576 116.857, 371.673 118, 373.500 118 C 374.633 118, 375 119.222, 375 123 C 375 127.906, 375.057 128, 378.048 128 C 380.508 128, 381.347 128.597, 382.396 131.090 L 383.695 134.180 386.002 128.340 C 387.271 125.128, 390.230 118.900, 392.578 114.500 C 398.693 103.041, 400.740 96.026, 401.931 82.457 C 403.851 60.568, 402.772 39.353, 399.484 34.335 C 397.639 31.519, 395.594 31.403, 390.810 33.842 M 162.221 53.788 C 165.917 57.741, 170.979 64.013, 173.471 67.727 C 178.615 75.395, 179.607 75.333, 174.873 67.640 C 170.682 60.827, 164.816 53.980, 159.702 49.930 C 156.380 47.298, 156.908 48.107, 162.221 53.788 M 346.815 53.750 C 340.643 60.033, 332 72.027, 332 74.310 C 332 74.860, 333.852 72.428, 336.115 68.905 C 338.378 65.382, 343.365 59.013, 347.196 54.750 C 351.027 50.487, 354.001 47, 353.804 47 C 353.607 47, 350.462 50.038, 346.815 53.750 M 112.097 73.662 C 111.950 84.528, 114.362 95.083, 119.167 104.601 C 121.485 109.194, 123.566 112.768, 123.790 112.543 C 124.014 112.319, 122.843 108.618, 121.187 104.318 C 117.464 94.650, 115.284 86.329, 113.539 75.130 L 112.194 66.500 112.097 73.662 M 394.083 73 C 393.339 76.025, 391.179 82.892, 389.285 88.260 C 385.076 100.183, 385.441 103.296, 389.816 92.788 C 393.344 84.313, 396.284 72.874, 395.771 69.619 C 395.565 68.316, 394.916 69.617, 394.083 73 M 213.347 77.250 C 211.673 79.037, 209.559 81.613, 208.651 82.973 C 206.396 86.349, 206.536 93.727, 208.929 97.651 C 210.951 100.967, 222.887 111.447, 223.707 110.626 C 223.970 110.363, 223.466 107.676, 222.588 104.655 C 221.357 100.419, 220.076 98.436, 216.995 95.996 C 212.220 92.214, 211.787 88.913, 215.501 84.594 C 217.229 82.585, 218 80.503, 218 77.844 C 218 75.730, 217.638 74, 217.196 74 C 216.754 74, 215.022 75.463, 213.347 77.250 M 294 77.637 C 294 80.375, 294.628 82.258, 295.936 83.442 C 297.001 84.406, 298.352 86.571, 298.939 88.254 C 299.942 91.132, 299.745 91.556, 295.625 95.407 C 290.646 100.061, 289.549 101.917, 288.566 107.359 L 287.868 111.219 292.560 107.859 C 306.343 97.989, 308.400 87.716, 298.532 78.031 L 294 73.584 294 77.637 M 389.147 100.306 C 386.404 105.537, 385.652 107.596, 387.070 106 C 389.370 103.412, 394.495 93.162, 393.825 92.492 C 393.616 92.283, 391.511 95.799, 389.147 100.306 M 230.547 113 C 233.020 120.425, 235.513 128.233, 236.087 130.351 C 236.662 132.469, 237.330 134.003, 237.574 133.760 C 238.195 133.138, 233.627 115.624, 231.100 108.940 C 226.664 97.204, 226.264 100.139, 230.547 113 M 282.177 105.108 C 278.455 113.833, 273.275 134.566, 275.099 133.439 C 275.595 133.132, 276 132.266, 276 131.513 C 276 130.761, 278.023 123.736, 280.496 115.902 C 284.971 101.728, 285.748 96.738, 282.177 105.108 M 167 135.027 C 157.132 136.399, 148.099 140.503, 140.812 146.928 C 136.429 150.792, 126 163.071, 126 164.367 C 126 165.225, 132.095 163.918, 135.081 162.419 C 136.501 161.706, 140.661 158.406, 144.325 155.085 C 152.397 147.770, 157.002 145.315, 166.361 143.338 C 178.152 140.846, 193.977 143.470, 207.329 150.129 L 213.500 153.206 209.100 148.663 C 199.367 138.611, 181.906 132.956, 167 135.027 M 330.500 135.022 C 320.185 137.093, 306.841 144.162, 300.526 150.903 L 297.552 154.077 305.093 150.592 C 313.558 146.682, 324.254 143.487, 332.213 142.493 C 344.108 141.006, 357.937 145.909, 368.834 155.475 C 372.318 158.533, 376.368 161.640, 377.834 162.378 C 381.264 164.104, 386 165.241, 386 164.338 C 386 162.433, 373.991 148.308, 369.558 145 C 357.408 135.932, 343.573 132.398, 330.500 135.022 M 247.572 147.400 C 246.591 153.097, 247.592 168.992, 249.023 170.423 C 250.129 171.529, 250.160 160.786, 249.084 149.500 L 248.416 142.500 247.572 147.400 M 309.281 168.911 C 303.346 173.211, 300.709 177.468, 300.203 183.565 C 298.675 201.992, 320.972 213.715, 335.216 201.973 C 342.788 195.732, 346.465 181.668, 342.520 174.039 C 340.572 170.272, 336.317 167, 333.365 167 C 330.499 167, 330.490 167.157, 333.001 173.761 C 335.578 180.541, 335.509 183.365, 332.616 189.579 C 326.807 202.052, 317.327 202.148, 312 189.787 C 309.105 183.071, 309.004 175.591, 311.732 170.078 C 312.841 167.835, 313.648 166, 313.525 166 C 313.401 166, 311.492 167.310, 309.281 168.911 M 171.763 168.565 C 167.734 170.751, 165.651 175.517, 165.671 182.500 C 165.692 189.522, 167.457 194.174, 172.116 199.480 C 178.191 206.398, 185.894 208.441, 195.269 205.620 C 201.475 203.752, 205.656 200.594, 207.996 196.008 C 212.767 186.656, 211.450 177.513, 204.395 171.010 C 198.434 165.515, 196.464 165.603, 199.027 171.250 C 201.185 176.004, 201.438 181.985, 199.674 186.511 C 195.091 198.264, 187.344 202.190, 181.085 195.931 C 175.324 190.170, 173.741 179.269, 177.586 171.834 C 178.364 170.330, 179 168.627, 179 168.050 C 179 166.541, 174.963 166.829, 171.763 168.565 M 184.655 170.829 C 182.768 172.914, 182.390 180.992, 184.035 184.066 C 184.789 185.474, 186.138 186, 189 186 C 193.553 186, 195 184.191, 195 178.500 C 195 170.497, 188.989 166.040, 184.655 170.829 M 318.223 170.557 C 316.485 171.774, 316 173.097, 316 176.622 C 316 182.979, 317.330 185, 321.512 185 C 326.185 185, 328.475 181.579, 327.695 175.764 C 326.857 169.518, 322.850 167.315, 318.223 170.557 M 92 217.600 C 106.165 220.930, 105.918 220.776, 110.406 229 C 113.146 234.019, 117.350 239.377, 123.115 245.196 C 131.193 253.350, 132.625 254.325, 146.104 260.843 L 160.477 267.794 155.989 268.931 C 131.883 275.038, 106.188 289.100, 89.758 305.179 C 85.216 309.623, 83.779 311.236, 86.565 308.763 C 105.399 292.041, 127.231 279.817, 153.296 271.399 L 162.092 268.558 170.642 271.461 C 175.344 273.057, 181.511 275.440, 184.346 276.756 C 187.181 278.072, 199.625 281.781, 212 284.999 C 224.375 288.217, 238.941 292.458, 244.369 294.425 C 249.797 296.391, 255.076 298, 256.099 298 C 257.122 298, 262.408 296.206, 267.845 294.014 C 273.283 291.822, 283.530 288.649, 290.616 286.963 C 309.486 282.474, 332.292 274.568, 343.460 268.645 C 348.840 265.791, 353.300 263.020, 353.371 262.486 C 353.512 261.422, 338.496 257.477, 319.031 253.464 C 305.839 250.743, 297.946 247.309, 301.582 245.870 C 302.637 245.453, 306.425 244.464, 310 243.673 C 314.324 242.716, 315.496 242.197, 313.500 242.123 C 309.263 241.966, 298.823 243.777, 297.743 244.857 C 297.205 245.395, 298.702 247.098, 301.448 249.070 C 306.742 252.872, 307.946 255.907, 305.587 259.507 C 303.598 262.543, 300.980 262.637, 295 259.886 C 284.077 254.861, 282.455 255.185, 292.693 260.347 L 299.387 263.721 290.943 267.729 C 277.917 273.911, 263.023 279.258, 257.500 279.734 C 253.649 280.067, 250.441 279.434, 243.538 276.980 C 233.619 273.453, 214.992 265.386, 213.627 264.024 C 213.130 263.529, 215.437 261.799, 218.978 260.011 C 227.864 255.525, 225.818 255.235, 216.500 259.660 L 208.707 263.361 206.317 260.583 C 202.768 256.457, 203.698 254.341, 211.903 247.868 C 213.224 246.825, 214.075 245.742, 213.794 245.461 C 213.086 244.753, 195.869 241.798, 195.369 242.298 C 195.146 242.521, 198.572 243.482, 202.982 244.435 C 207.392 245.388, 211 246.497, 211 246.900 C 211 248.395, 203.112 252, 199.864 251.988 C 193.360 251.965, 179.021 246.935, 173.618 242.781 C 171.834 241.409, 171.824 241.198, 173.423 238.758 C 175.391 235.754, 176.336 236.113, 159.506 233.481 C 147.924 231.670, 141.543 230.095, 115.379 222.589 C 104.863 219.572, 93.838 216.871, 90.879 216.587 L 85.500 216.072 92 217.600 M 248 218.549 C 247.175 218.724, 244.813 219.142, 242.750 219.479 C 239.421 220.022, 239 220.416, 239 222.987 C 239 225.007, 240.437 227.540, 243.750 231.360 C 246.363 234.372, 249.735 239.073, 251.245 241.806 L 253.990 246.777 251.245 248.638 C 248.313 250.627, 238.801 251.187, 232 249.772 L 228.500 249.043 231.500 251.529 C 233.150 252.896, 236.975 254.966, 240 256.128 L 245.500 258.242 251 256.284 C 256.462 254.339, 256.541 254.339, 262.374 256.287 L 268.248 258.249 274.144 255.431 C 279.990 252.637, 286.047 247.690, 281.500 249.423 C 280.400 249.842, 276.915 250.431, 273.756 250.731 C 267.450 251.330, 259 248.915, 259 246.513 C 259 244.362, 265.819 232.943, 269.610 228.747 C 274.046 223.836, 273.861 220.964, 269 219.306 C 265.870 218.239, 251.855 217.734, 248 218.549 M 243.694 223.639 C 242.550 224.784, 244.060 226, 246.625 226 C 250.832 226, 252.756 227.748, 254.574 233.222 C 256.213 238.157, 256.369 238.318, 257.258 235.981 C 260.080 228.564, 261.066 227, 262.919 227 C 263.992 227, 266.137 226.500, 267.685 225.890 C 270.301 224.858, 270.358 224.722, 268.500 223.960 C 266.133 222.990, 244.621 222.712, 243.694 223.639 M 400 226.594 C 393.125 228.480, 383.900 230.674, 379.500 231.471 L 371.500 232.919 378.500 232.432 C 382.350 232.164, 387.075 231.735, 389 231.479 L 392.500 231.014 389.500 231.995 C 383.749 233.877, 366.169 236, 355.872 236.058 C 341.968 236.135, 338.228 236.894, 336.711 239.945 C 335.176 243.033, 330.307 245.908, 322 248.631 L 315.500 250.761 319.500 251.784 C 321.700 252.347, 331.765 254.685, 341.866 256.981 L 360.232 261.155 365.208 258.062 L 370.183 254.969 378.842 257.021 C 386.238 258.774, 402.842 263.365, 409.500 265.497 C 410.913 265.950, 410.766 265.683, 409 264.588 C 405.988 262.720, 390.496 257.777, 379.602 255.208 L 371.704 253.346 375.155 251.213 C 379.363 248.612, 389.933 237.692, 392.512 233.281 C 394.669 229.592, 394.686 229.583, 405.849 226.466 C 413.795 224.247, 417.003 222.902, 413.917 223.083 C 413.137 223.129, 406.875 224.709, 400 226.594 M 222.750 231.080 C 220.447 232.421, 220.493 237.231, 222.829 239.345 C 226.639 242.793, 233 240.063, 233 234.978 C 233 230.614, 227.283 228.440, 222.750 231.080 M 280.389 230.980 C 275.053 233.136, 277.777 240.247, 284.150 240.799 C 290.837 241.377, 293.427 233.882, 287.477 231.171 C 284.522 229.825, 283.327 229.793, 280.389 230.980 M 225 236 C 225 237.333, 225.667 238, 227 238 C 228.333 238, 229 237.333, 229 236 C 229 234.667, 228.333 234, 227 234 C 225.667 234, 225 234.667, 225 236 M 282.481 235.030 C 282.093 235.659, 282.227 236.627, 282.781 237.181 C 284.202 238.602, 287.500 237.767, 287.500 235.986 C 287.500 234.188, 283.476 233.422, 282.481 235.030 M 384 275.691 C 375.094 277.182, 359.339 284.502, 351.212 290.927 L 346.008 295.040 352.055 302.650 C 358.002 310.134, 363.468 319.662, 365.124 325.433 C 366.313 329.578, 364.631 327.354, 362.593 322.086 C 360.586 316.899, 353.517 305.975, 348.948 301 C 347.180 299.075, 345.081 295.925, 344.283 294 C 341.828 288.077, 333.585 276.025, 332 276.041 C 331.175 276.049, 328.025 276.887, 325 277.903 L 319.500 279.749 319.685 285.250 C 319.913 292.036, 322.885 299.290, 332.018 315.355 C 335.816 322.035, 339.615 330.182, 340.461 333.460 C 344.448 348.903, 340.533 363.122, 328.260 377.767 C 319.391 388.350, 310.996 397.441, 311.035 396.420 C 311.054 395.914, 311.714 392.575, 312.500 389 C 314.160 381.451, 314.391 373.152, 313 371 C 312.287 369.897, 312.027 370.588, 312.015 373.610 C 311.999 377.989, 313.152 376.045, 283.319 422 L 271.958 439.500 278.454 432.663 C 282.026 428.903, 289.974 418.216, 296.116 408.913 C 302.257 399.611, 307.501 392, 307.770 392 C 308.038 392, 307.959 394.250, 307.594 397 C 307.230 399.750, 307.284 401.995, 307.716 401.989 C 308.147 401.983, 310.691 399.958, 313.368 397.489 C 316.046 395.020, 318.408 393, 318.618 393 C 318.828 393, 319 397.069, 319 402.042 C 319 418.815, 315.484 430.237, 305.030 447.422 C 299.376 456.718, 294.643 471.468, 294.577 480 C 294.523 487.124, 297.253 494.137, 301.551 497.910 C 307.219 502.887, 320.102 505.622, 325.150 502.920 C 328.226 501.273, 329.993 495.839, 330.070 487.782 C 330.119 482.785, 330.410 481.128, 331 482.500 C 332.330 485.595, 332.065 494.071, 330.501 498.462 C 329.725 500.641, 329.333 502.666, 329.631 502.962 C 330.839 504.165, 342.841 503.286, 347.693 501.639 C 354.254 499.413, 357.533 496.836, 360.028 491.945 C 364.236 483.697, 361.252 470.670, 353.726 464.429 C 349.186 460.665, 347.630 455.201, 347.765 443.500 C 347.839 437.093, 348.608 431.907, 350.436 425.500 C 356.133 405.535, 359.186 392.409, 359.937 384.659 L 360.727 376.500 360.864 382.640 C 361.039 390.543, 358.904 401.656, 353.918 418.791 C 349.442 434.176, 348.176 445.330, 349.879 454.396 C 350.812 459.367, 351.761 461.112, 355.928 465.517 C 362.194 472.142, 364.823 479.878, 363.207 486.936 C 362.633 489.445, 362.283 491.617, 362.430 491.763 C 362.576 491.909, 365.577 491.139, 369.098 490.050 C 377.187 487.550, 384.427 482.989, 386.998 478.771 C 389.353 474.909, 389.621 468.203, 387.532 465.441 C 386.724 464.374, 386.049 463.169, 386.032 462.764 C 386.014 462.360, 388.813 460.615, 392.250 458.887 C 424.739 442.553, 450.628 410.897, 460.243 375.750 C 462.163 368.732, 462.492 365.111, 462.448 351.500 C 462.399 336.712, 462.182 334.856, 459.580 327 C 455.966 316.089, 452.393 309.051, 446.455 301.152 C 437.507 289.249, 424.018 280.252, 409.540 276.532 C 404.043 275.119, 390.148 274.662, 384 275.691 M 167 278.682 C 148.950 289.365, 127.282 314.180, 118.951 333.710 C 114.898 343.211, 115.278 344.950, 119.488 336.166 C 129.129 316.049, 146.457 295.347, 164.750 282.093 C 171 277.564, 172.836 275.968, 171.750 276.009 C 171.613 276.015, 169.475 277.217, 167 278.682 M 178.462 288.250 C 170.658 304.468, 168.396 318.564, 171.177 333.659 C 172.261 339.541, 172.195 340.264, 170.341 342.774 C 169.233 344.273, 165.891 347.127, 162.913 349.116 C 146.725 359.928, 129.884 384.783, 125.047 405 C 122.559 415.400, 122.356 429.696, 124.573 438.356 C 128.065 451.998, 137.343 466.500, 147.525 474.232 C 161.010 484.471, 176.246 489.609, 196.305 490.680 C 207.876 491.298, 208.137 491.365, 209.519 494.036 C 212.591 499.977, 220.865 504.035, 229.799 503.985 C 234.782 503.956, 235.347 502.907, 233.581 496.960 C 231.839 491.094, 231.516 485.417, 232.878 484.576 C 233.360 484.277, 233.953 486.388, 234.195 489.267 C 235.342 502.899, 243.438 507.328, 260.335 503.569 C 273.464 500.648, 279.763 493.827, 280.755 481.457 C 281.534 471.761, 277.651 461.269, 268.005 447 C 265.960 443.975, 258.976 432.050, 252.483 420.500 C 245.991 408.950, 237.794 395.323, 234.268 390.217 C 230.741 385.111, 227.171 378.924, 226.334 376.467 C 224.414 370.832, 223.616 370.736, 224.524 376.250 C 225.436 381.787, 227.253 386.104, 231.028 391.697 C 232.714 394.195, 233.879 396.454, 233.617 396.716 C 232.745 397.588, 223.718 390.736, 216.964 384.075 C 211.869 379.050, 209.850 376.204, 208.399 372 L 206.500 366.500 206.203 372.169 C 205.932 377.327, 206.473 379.448, 209.834 386.410 C 210.076 386.911, 208.116 385.786, 205.479 383.910 C 199.452 379.624, 191.143 369.673, 187.673 362.584 C 179.629 346.156, 180.199 333.189, 190.056 308.399 C 195.493 294.727, 198.520 284.107, 197.313 282.940 C 196.597 282.249, 185.260 279, 183.563 279 C 183.206 279, 180.911 283.163, 178.462 288.250 M 293.275 288.506 C 282.366 291.031, 276.269 293.402, 283.500 292.308 C 290.854 291.195, 309.540 286.213, 306.500 286.176 C 304.850 286.156, 298.899 287.205, 293.275 288.506 M 210 288.921 C 210 289.514, 211.238 290.016, 212.750 290.036 C 214.262 290.055, 218.200 290.723, 221.500 291.520 C 228.321 293.167, 231 293.357, 231 292.195 C 231 291.752, 227.512 290.833, 223.250 290.153 C 218.988 289.473, 214.262 288.674, 212.750 288.379 C 211.116 288.059, 210 288.279, 210 288.921 M 382.908 317.840 C 377.870 319.866, 370.201 324.848, 367.956 327.553 C 366.873 328.858, 366.524 332.573, 366.513 342.888 C 366.500 356.158, 366.418 356.672, 363.250 363.362 C 361.462 367.137, 360.052 371.637, 360.116 373.362 C 360.180 375.088, 360.439 375.709, 360.691 374.742 C 361.036 373.418, 362.279 374.517, 365.718 379.188 C 372.823 388.840, 376.855 398.247, 378.202 408.315 C 379.573 418.559, 379.475 418.535, 390.258 411.307 C 405.390 401.163, 419.865 379.103, 423.687 360.362 C 427.218 343.044, 419.791 324.989, 406.467 318.503 C 400.802 315.745, 388.945 315.412, 382.908 317.840 M 166.885 361 C 163.699 371.020, 163.439 391.413, 166.390 400 C 171.107 413.727, 180.010 427.457, 189.324 435.368 C 194.968 440.162, 201.847 445, 203.018 445 C 203.425 445, 200.290 441.512, 196.053 437.250 C 183.347 424.469, 174.068 408.558, 170.010 392.590 C 167.752 383.705, 167.327 369.236, 169.083 361.048 C 170.831 352.897, 169.472 352.867, 166.885 361 M 373.792 406.159 C 374.097 412.042, 373.714 417.171, 372.598 422.159 C 370.687 430.698, 364.723 444.635, 360.116 451.332 C 356.656 456.361, 357.374 457.168, 362.493 454.004 C 368.587 450.238, 375.398 437.562, 377.303 426.441 C 378.515 419.364, 377.281 407.114, 374.728 400.882 C 373.428 397.709, 373.370 398.036, 373.792 406.159 M 200.797 430.069 C 205.517 437.453, 210.077 447.871, 211.439 454.378 C 212.224 458.130, 213.123 461.457, 213.437 461.771 C 214.525 462.858, 212.681 452.477, 210.815 447.010 C 208.821 441.164, 201.759 428.587, 199.787 427.368 C 199.136 426.966, 199.591 428.181, 200.797 430.069" stroke="none" fill="black" fill-rule="evenodd"/>
</svg>